<svg
	id="Group_2"
	data-name="Group 2"
	xmlns="http://www.w3.org/2000/svg"
	xmlns:xlink="http://www.w3.org/1999/xlink"
	width="45.476"
	height="53.454"
	viewBox="0 0 45.476 53.454"
>
	<defs>
		<clipPath id="clip-path">
			<rect
				id="Rectangle_2"
				data-name="Rectangle 2"
				width="45.476"
				height="53.454"
				fill="none"
			/>
		</clipPath>
	</defs>
	<g id="Group_1" data-name="Group 1" clip-path="url(#clip-path)">
		<path
			id="Path_1"
			data-name="Path 1"
			d="M43.227,41.914v8.394s2.249-.387,2.249-4.129c0-3.782-2.249-4.264-2.249-4.264M16.273,46.223c0,.211.008.409.022.6.225,3.183,2.228,3.531,2.228,3.531V41.96s-2.249.483-2.249,4.262M33.647,29.5a6.351,6.351,0,0,0-.2-1.188A13.789,13.789,0,0,0,32.5,25.7a13.429,13.429,0,0,0-1.786-3.068c.024-.079.05-.167.074-.258A6.5,6.5,0,0,0,31,21.125a23.342,23.342,0,0,0,.044-2.869c.191-2.158.332-3.79.431-4.884,0-.038,0-.076.01-.111.111-1.51.187-2.667.229-3.531.266-4.91-1.892-7.3-3.772-8.447A8.4,8.4,0,0,0,22.159.113a8.868,8.868,0,0,0-2.138.606A8.274,8.274,0,0,0,18.56,1.5a15.073,15.073,0,0,0-3.215-.34A15.376,15.376,0,0,0,8.406,2.809,9.48,9.48,0,0,0,4.03,7.582a22.826,22.826,0,0,0-.912,2.732c-1.238,3.97-1.49,5.566-1.49,6.846v3.154a11.1,11.1,0,0,0,.646,3.748A8.63,8.63,0,0,0,.068,28.714,6.966,6.966,0,0,0,0,29.672a7.171,7.171,0,0,0,.258,1.88c-.03.507-.048.97-.056,1.385A7.487,7.487,0,0,0,.056,34.4V37.4A6.722,6.722,0,0,0,.217,38.86c-.006.193-.026.451-.044.785-.044.781-.062,1.343-.062,1.777,0,6.357,4.159,9.25,8.022,9.25a10.731,10.731,0,0,0,5.818-1.941,6.633,6.633,0,0,0,.934-.725c0-2.009,0-4.165.018-5.7a16.331,16.331,0,0,1,.159-2.158,8.1,8.1,0,0,1-4.9-2.9q0,.489.217,2.939a10.87,10.87,0,0,1-.054,2.935A4.452,4.452,0,0,1,8.153,44Q6.9,44,6.905,41.553c0-.29.02-.753.056-1.387s.054-1.079.054-1.333a3.65,3.65,0,0,0-.163-1.306V34.536a.665.665,0,0,1,.054-.244c.036-.091.074-.173.109-.246a18.679,18.679,0,0,1,.054-2.339,3.381,3.381,0,0,0,0-1.25A2.569,2.569,0,0,1,6.8,29.8c.143-1.015.886-1.522,2.222-1.522q1.3,0,1.572.924a21.8,21.8,0,0,0,.219,2.557,7.959,7.959,0,0,0,2.059,3.917,5.6,5.6,0,0,0,2.786,2.007c1.333-3.75,4.354-5.759,8.292-6.428A5.275,5.275,0,0,0,21.6,27.519a11,11,0,0,0-4.012-1.143q-1.681-.218-2.059-.219a7.5,7.5,0,0,1-4.853-1.685,5.035,5.035,0,0,1-2.249-4.026V17.292a22.934,22.934,0,0,1,1.194-4.841q.54-1.794.6-1.9A2.847,2.847,0,0,1,11.46,9.025a8.593,8.593,0,0,1,3.9-.926,6.354,6.354,0,0,1,5.908,3.265c.109.107.29.272.542.489q.054-.76.217-2.339-.051-.68-.107-1.359a1.024,1.024,0,0,1,.757-1.033,2.011,2.011,0,0,1,.6-.163,1.61,1.61,0,0,1,1.164.27q.623.382.515,2.285-.054,1.2-.217,3.372-.161,1.794-.487,5.494a13.118,13.118,0,0,1,0,2.393c-.183.69-.723,1.033-1.627,1.033a2.665,2.665,0,0,1-1.355-.38q-.325-1.034-.324-.87a11.851,11.851,0,0,0-.6-3.917q-.6-1.252-1.653-3.563T15.905,10.6a2.482,2.482,0,0,0-2.82,1.469c-.143.473-.344,1.162-.6,2.069A17.66,17.66,0,0,0,11.677,18c-.036.4-.072.562-.107.491q.161,1.091.38,2.176a3.09,3.09,0,0,0,1.327,2.067,8.832,8.832,0,0,0,4.038.87q7.318.435,9.052,5.113a5.74,5.74,0,0,1,.542,1.469c.024.284.042.556.058.815,1.765-.022,4.284-.028,6.776-.026-.022-.461-.054-.948-.1-1.469m5.568,9.278V36.219H22.5v2.722s-3.026.592-3.026,2.993v8.533a3.179,3.179,0,0,0,3.464,2.987h16.44c1.894,0,2.949-1.021,2.949-2.75V41.777c0-2.752-3.112-2.995-3.112-2.995M22.85,43.433a2.856,2.856,0,0,1,5.646-.612,2.818,2.818,0,0,1,.066.612,2.854,2.854,0,0,1-5.01,1.872h0a2.843,2.843,0,0,1-.7-1.872m3.2,7.354H23.2V47.759h2.85Zm4.217.042h-2.85V47.8h2.85Zm4.054,0h-2.85V47.8h2.85Zm4.107.042h-2.85V47.842h2.85Zm-2.379-4.628A2.856,2.856,0,1,1,38.9,43.387a2.855,2.855,0,0,1-2.856,2.856M33.71,34.109v0a5.316,5.316,0,0,0-3.269-.886A4.451,4.451,0,0,0,26.8,34.54a2.207,2.207,0,0,0-.485.932h8.394a2.575,2.575,0,0,0-1-1.363"
			transform="translate(0 0)"
			fill="#fff"
		/>
		<path
			id="Path_2"
			data-name="Path 2"
			d="M16.273,46.223c0,.211.008.409.022.6.225,3.183,2.228,3.531,2.228,3.531V41.96s-2.249.483-2.249,4.262M33.647,29.5a6.351,6.351,0,0,0-.2-1.188A13.789,13.789,0,0,0,32.5,25.7a13.429,13.429,0,0,0-1.786-3.068c.024-.079.05-.167.074-.258A6.5,6.5,0,0,0,31,21.125a23.342,23.342,0,0,0,.044-2.869c.191-2.158.332-3.79.431-4.884,0-.038,0-.076.01-.111.111-1.51.187-2.667.229-3.531.266-4.91-1.892-7.3-3.772-8.447A8.4,8.4,0,0,0,22.159.113a8.868,8.868,0,0,0-2.138.606A8.274,8.274,0,0,0,18.56,1.5a15.073,15.073,0,0,0-3.215-.34A15.376,15.376,0,0,0,8.406,2.809,9.48,9.48,0,0,0,4.03,7.582a22.826,22.826,0,0,0-.912,2.732c-1.238,3.97-1.49,5.566-1.49,6.846v3.154a11.1,11.1,0,0,0,.646,3.748A8.63,8.63,0,0,0,.068,28.714,6.966,6.966,0,0,0,0,29.672a7.171,7.171,0,0,0,.258,1.88c-.03.507-.048.97-.056,1.385A7.487,7.487,0,0,0,.056,34.4V37.4A6.722,6.722,0,0,0,.217,38.86c-.006.193-.026.451-.044.785-.044.781-.062,1.343-.062,1.777,0,6.357,4.159,9.25,8.022,9.25a10.731,10.731,0,0,0,5.818-1.941,6.633,6.633,0,0,0,.934-.725c0-2.009,0-4.165.018-5.7a16.331,16.331,0,0,1,.159-2.158,8.1,8.1,0,0,1-4.9-2.9q0,.489.217,2.939a10.87,10.87,0,0,1-.054,2.935A4.452,4.452,0,0,1,8.153,44Q6.9,44,6.905,41.553c0-.29.02-.753.056-1.387s.054-1.079.054-1.333a3.65,3.65,0,0,0-.163-1.306V34.536a.665.665,0,0,1,.054-.244c.036-.091.074-.173.109-.246a18.679,18.679,0,0,1,.054-2.339,3.381,3.381,0,0,0,0-1.25A2.569,2.569,0,0,1,6.8,29.8c.143-1.015.886-1.522,2.222-1.522q1.3,0,1.572.924a21.8,21.8,0,0,0,.219,2.557,7.959,7.959,0,0,0,2.059,3.917,5.6,5.6,0,0,0,2.786,2.007c1.333-3.75,4.354-5.759,8.292-6.428A5.275,5.275,0,0,0,21.6,27.519a11,11,0,0,0-4.012-1.143q-1.681-.218-2.059-.219a7.5,7.5,0,0,1-4.853-1.685,5.035,5.035,0,0,1-2.249-4.026V17.292a22.934,22.934,0,0,1,1.194-4.841q.54-1.794.6-1.9A2.847,2.847,0,0,1,11.46,9.025a8.593,8.593,0,0,1,3.9-.926,6.354,6.354,0,0,1,5.908,3.265c.109.107.29.272.542.489q.054-.76.217-2.339-.051-.68-.107-1.359a1.024,1.024,0,0,1,.757-1.033,2.011,2.011,0,0,1,.6-.163,1.61,1.61,0,0,1,1.164.27q.623.382.515,2.285-.054,1.2-.217,3.372-.161,1.794-.487,5.494a13.118,13.118,0,0,1,0,2.393c-.183.69-.723,1.033-1.627,1.033a2.665,2.665,0,0,1-1.355-.38q-.325-1.034-.324-.87a11.851,11.851,0,0,0-.6-3.917q-.6-1.252-1.653-3.563T15.905,10.6a2.482,2.482,0,0,0-2.82,1.469c-.143.473-.344,1.162-.6,2.069A17.66,17.66,0,0,0,11.677,18c-.036.4-.072.562-.107.491q.161,1.091.38,2.176a3.09,3.09,0,0,0,1.327,2.067,8.832,8.832,0,0,0,4.038.87q7.318.435,9.052,5.113a5.74,5.74,0,0,1,.542,1.469c.024.284.042.556.058.815,1.765-.022,4.284-.028,6.776-.026-.022-.461-.054-.948-.1-1.469m5.568,9.278V36.219H22.5v2.722s-3.026.592-3.026,2.993v8.533a3.179,3.179,0,0,0,3.464,2.987h16.44c1.894,0,2.949-1.021,2.949-2.75V41.777c0-2.752-3.112-2.995-3.112-2.995M22.85,43.433a2.856,2.856,0,0,1,5.646-.612,2.818,2.818,0,0,1,.066.612,2.854,2.854,0,0,1-5.01,1.872h0a2.843,2.843,0,0,1-.7-1.872m3.2,7.354H23.2V47.759h2.85Zm4.217.042h-2.85V47.8h2.85Zm4.054,0h-2.85V47.8h2.85Zm4.107.042h-2.85V47.842h2.85Zm-2.379-4.628A2.856,2.856,0,1,1,38.9,43.387a2.855,2.855,0,0,1-2.856,2.856M33.71,34.109v0a5.316,5.316,0,0,0-3.269-.886A4.451,4.451,0,0,0,26.8,34.54a2.207,2.207,0,0,0-.485.932h8.394a2.575,2.575,0,0,0-1-1.363m9.516,7.806v8.394s2.249-.387,2.249-4.129c0-3.782-2.249-4.264-2.249-4.264m0,0v8.394s2.249-.387,2.249-4.129c0-3.782-2.249-4.264-2.249-4.264M16.273,46.223c0,.211.008.409.022.6.225,3.183,2.228,3.531,2.228,3.531V41.96s-2.249.483-2.249,4.262M33.647,29.5a6.351,6.351,0,0,0-.2-1.188A13.789,13.789,0,0,0,32.5,25.7a13.429,13.429,0,0,0-1.786-3.068c.024-.079.05-.167.074-.258A6.5,6.5,0,0,0,31,21.125a23.342,23.342,0,0,0,.044-2.869c.191-2.158.332-3.79.431-4.884,0-.038,0-.076.01-.111.111-1.51.187-2.667.229-3.531.266-4.91-1.892-7.3-3.772-8.447A8.4,8.4,0,0,0,22.159.113a8.868,8.868,0,0,0-2.138.606A8.274,8.274,0,0,0,18.56,1.5a15.073,15.073,0,0,0-3.215-.34A15.376,15.376,0,0,0,8.406,2.809,9.48,9.48,0,0,0,4.03,7.582a22.826,22.826,0,0,0-.912,2.732c-1.238,3.97-1.49,5.566-1.49,6.846v3.154a11.1,11.1,0,0,0,.646,3.748A8.63,8.63,0,0,0,.068,28.714,6.966,6.966,0,0,0,0,29.672a7.171,7.171,0,0,0,.258,1.88c-.03.507-.048.97-.056,1.385A7.487,7.487,0,0,0,.056,34.4V37.4A6.722,6.722,0,0,0,.217,38.86c-.006.193-.026.451-.044.785-.044.781-.062,1.343-.062,1.777,0,6.357,4.159,9.25,8.022,9.25a10.731,10.731,0,0,0,5.818-1.941,6.633,6.633,0,0,0,.934-.725c0-2.009,0-4.165.018-5.7a16.331,16.331,0,0,1,.159-2.158,8.1,8.1,0,0,1-4.9-2.9q0,.489.217,2.939a10.87,10.87,0,0,1-.054,2.935A4.452,4.452,0,0,1,8.153,44Q6.9,44,6.905,41.553c0-.29.02-.753.056-1.387s.054-1.079.054-1.333a3.65,3.65,0,0,0-.163-1.306V34.536a.665.665,0,0,1,.054-.244c.036-.091.074-.173.109-.246a18.679,18.679,0,0,1,.054-2.339,3.381,3.381,0,0,0,0-1.25A2.569,2.569,0,0,1,6.8,29.8c.143-1.015.886-1.522,2.222-1.522q1.3,0,1.572.924a21.8,21.8,0,0,0,.219,2.557,7.959,7.959,0,0,0,2.059,3.917,5.6,5.6,0,0,0,2.786,2.007c1.333-3.75,4.354-5.759,8.292-6.428A5.275,5.275,0,0,0,21.6,27.519a11,11,0,0,0-4.012-1.143q-1.681-.218-2.059-.219a7.5,7.5,0,0,1-4.853-1.685,5.035,5.035,0,0,1-2.249-4.026V17.292a22.934,22.934,0,0,1,1.194-4.841q.54-1.794.6-1.9A2.847,2.847,0,0,1,11.46,9.025a8.593,8.593,0,0,1,3.9-.926,6.354,6.354,0,0,1,5.908,3.265c.109.107.29.272.542.489q.054-.76.217-2.339-.051-.68-.107-1.359a1.024,1.024,0,0,1,.757-1.033,2.011,2.011,0,0,1,.6-.163,1.61,1.61,0,0,1,1.164.27q.623.382.515,2.285-.054,1.2-.217,3.372-.161,1.794-.487,5.494a13.118,13.118,0,0,1,0,2.393c-.183.69-.723,1.033-1.627,1.033a2.665,2.665,0,0,1-1.355-.38q-.325-1.034-.324-.87a11.851,11.851,0,0,0-.6-3.917q-.6-1.252-1.653-3.563T15.905,10.6a2.482,2.482,0,0,0-2.82,1.469c-.143.473-.344,1.162-.6,2.069A17.66,17.66,0,0,0,11.677,18c-.036.4-.072.562-.107.491q.161,1.091.38,2.176a3.09,3.09,0,0,0,1.327,2.067,8.832,8.832,0,0,0,4.038.87q7.318.435,9.052,5.113a5.74,5.74,0,0,1,.542,1.469c.024.284.042.556.058.815,1.765-.022,4.284-.028,6.776-.026-.022-.461-.054-.948-.1-1.469m5.568,9.278V36.219H22.5v2.722s-3.026.592-3.026,2.993v8.533a3.179,3.179,0,0,0,3.464,2.987h16.44c1.894,0,2.949-1.021,2.949-2.75V41.777c0-2.752-3.112-2.995-3.112-2.995M22.85,43.433a2.856,2.856,0,0,1,5.646-.612,2.818,2.818,0,0,1,.066.612,2.854,2.854,0,0,1-5.01,1.872h0a2.843,2.843,0,0,1-.7-1.872m3.2,7.354H23.2V47.759h2.85Zm4.217.042h-2.85V47.8h2.85Zm4.054,0h-2.85V47.8h2.85Zm4.107.042h-2.85V47.842h2.85Zm-2.379-4.628A2.856,2.856,0,1,1,38.9,43.387a2.855,2.855,0,0,1-2.856,2.856M33.71,34.109v0a5.316,5.316,0,0,0-3.269-.886A4.451,4.451,0,0,0,26.8,34.54a2.207,2.207,0,0,0-.485.932h8.394a2.575,2.575,0,0,0-1-1.363"
			transform="translate(0 0)"
			fill="#fff"
		/>
		<path
			id="Path_3"
			data-name="Path 3"
			d="M30.441,33.221A4.451,4.451,0,0,0,26.8,34.54a2.207,2.207,0,0,0-.485.932h7.2a11.1,11.1,0,0,0,.2-1.363v0a5.316,5.316,0,0,0-3.269-.886m-14.168,13c0,.211.008.409.022.6.256-.014.513-.04.769-.072q.745-.1,1.459-.211V41.96s-2.249.483-2.249,4.262m6.228-10v2.722s-3.026.592-3.026,2.993V46.37A29.105,29.105,0,0,0,23.55,45.3,2.856,2.856,0,1,1,28.5,42.821a12.629,12.629,0,0,0,4.646-6.069c.064-.175.123-.352.179-.533ZM33.647,29.5a6.351,6.351,0,0,0-.2-1.188A13.789,13.789,0,0,0,32.5,25.7a13.429,13.429,0,0,0-1.786-3.068c.024-.079.05-.167.074-.258A6.5,6.5,0,0,0,31,21.125a23.342,23.342,0,0,0,.044-2.869c.191-2.158.332-3.79.431-4.884,0-.038,0-.076.01-.111.111-1.51.187-2.667.229-3.531.266-4.91-1.892-7.3-3.772-8.447A8.4,8.4,0,0,0,22.159.113a8.868,8.868,0,0,0-2.138.606A8.274,8.274,0,0,0,18.56,1.5a15.073,15.073,0,0,0-3.215-.34A15.376,15.376,0,0,0,8.406,2.809,9.48,9.48,0,0,0,4.03,7.582a22.826,22.826,0,0,0-.912,2.732c-1.238,3.97-1.49,5.566-1.49,6.846v3.154a11.1,11.1,0,0,0,.646,3.748A8.63,8.63,0,0,0,.068,28.714,6.966,6.966,0,0,0,0,29.672a7.171,7.171,0,0,0,.258,1.88c-.03.507-.048.97-.056,1.385A7.487,7.487,0,0,0,.056,34.4V37.4A6.722,6.722,0,0,0,.217,38.86c-.006.193-.026.451-.044.785-.044.781-.062,1.343-.062,1.777,0,6.357,4.159,9.25,8.022,9.25a10.731,10.731,0,0,0,5.818-1.941,6.633,6.633,0,0,0,.934-.725c0-2.009,0-4.165.018-5.7a16.331,16.331,0,0,1,.159-2.158,8.1,8.1,0,0,1-4.9-2.9q0,.489.217,2.939a10.87,10.87,0,0,1-.054,2.935A4.452,4.452,0,0,1,8.153,44Q6.9,44,6.905,41.553c0-.29.02-.753.056-1.387s.054-1.079.054-1.333a3.65,3.65,0,0,0-.163-1.306V34.536a.665.665,0,0,1,.054-.244c.036-.091.074-.173.109-.246a18.679,18.679,0,0,1,.054-2.339,3.381,3.381,0,0,0,0-1.25A2.569,2.569,0,0,1,6.8,29.8c.143-1.015.886-1.522,2.222-1.522q1.3,0,1.572.924a21.8,21.8,0,0,0,.219,2.557,7.959,7.959,0,0,0,2.059,3.917,5.6,5.6,0,0,0,2.786,2.007c1.333-3.75,4.354-5.759,8.292-6.428A5.275,5.275,0,0,0,21.6,27.519a11,11,0,0,0-4.012-1.143q-1.681-.218-2.059-.219a7.5,7.5,0,0,1-4.853-1.685,5.035,5.035,0,0,1-2.249-4.026V17.292a22.934,22.934,0,0,1,1.194-4.841q.54-1.794.6-1.9A2.847,2.847,0,0,1,11.46,9.025a8.593,8.593,0,0,1,3.9-.926,6.354,6.354,0,0,1,5.908,3.265c.109.107.29.272.542.489q.054-.76.217-2.339-.051-.68-.107-1.359a1.024,1.024,0,0,1,.757-1.033,2.011,2.011,0,0,1,.6-.163,1.61,1.61,0,0,1,1.164.27q.623.382.515,2.285-.054,1.2-.217,3.372-.161,1.794-.487,5.494a13.118,13.118,0,0,1,0,2.393c-.183.69-.723,1.033-1.627,1.033a2.665,2.665,0,0,1-1.355-.38q-.325-1.034-.324-.87a11.851,11.851,0,0,0-.6-3.917q-.6-1.252-1.653-3.563T15.905,10.6a2.482,2.482,0,0,0-2.82,1.469c-.143.473-.344,1.162-.6,2.069A17.66,17.66,0,0,0,11.677,18c-.036.4-.072.562-.107.491q.161,1.091.38,2.176a3.09,3.09,0,0,0,1.327,2.067,8.832,8.832,0,0,0,4.038.87q7.318.435,9.052,5.113a5.74,5.74,0,0,1,.542,1.469c.024.284.042.556.058.815,1.765-.022,4.284-.028,6.776-.026-.022-.461-.054-.948-.1-1.469"
			transform="translate(0 0)"
			fill="#fff"
		/>
		<path
			id="Path_4"
			data-name="Path 4"
			d="M113.23,182.267h3.342a8.6,8.6,0,0,1-3.342,2.361Z"
			transform="translate(-90.729 -146.048)"
			fill="#fff"
		/>
		<path
			id="Path_5"
			data-name="Path 5"
			d="M132.41,174.749a2.207,2.207,0,0,1,.485-.932,5.432,5.432,0,0,1-.433.932Z"
			transform="translate(-106.098 -139.277)"
			fill="#fff"
		/>
		<path
			id="Path_6"
			data-name="Path 6"
			d="M132.41,169.428a2.207,2.207,0,0,1,.485-.932,4.451,4.451,0,0,1,3.644-1.319,5.315,5.315,0,0,1,3.269.886v0a2.575,2.575,0,0,1,1,1.363Z"
			transform="translate(-106.098 -133.956)"
			fill="#fff"
		/>
		<path
			id="Path_7"
			data-name="Path 7"
			d="M81.89,192.27c0,.211.008.409.022.6.225,3.183,2.228,3.531,2.228,3.531v-8.394s-2.249.483-2.249,4.262m22.942-7.44v-2.563H88.118v2.722s-3.026.592-3.026,2.993v8.533a3.179,3.179,0,0,0,3.464,2.987h16.44c1.894,0,2.949-1.021,2.949-2.75v-8.926c0-2.752-3.112-2.995-3.112-2.995m-16.364,4.65a2.856,2.856,0,0,1,5.646-.612,2.818,2.818,0,0,1,.066.612,2.854,2.854,0,0,1-5.01,1.872h0a2.843,2.843,0,0,1-.7-1.872m3.2,7.354h-2.85v-3.028h2.85Zm4.217.042H93.03v-3.028h2.85Zm4.054,0h-2.85v-3.028h2.85Zm4.107.042h-2.85V193.89h2.85Zm-2.379-4.628a2.856,2.856,0,1,1,2.856-2.856,2.855,2.855,0,0,1-2.856,2.856"
			transform="translate(-65.617 -146.048)"
			fill="#fff"
		/>
		<path
			id="Path_8"
			data-name="Path 8"
			d="M117.74,184.83v-2.563H101.026v2.722S98,185.582,98,187.982v8.533a3.179,3.179,0,0,0,3.464,2.987H117.9c1.894,0,2.949-1.021,2.949-2.75v-8.926c0-2.752-3.112-2.995-3.112-2.995m-16.364,4.65a2.856,2.856,0,0,1,5.646-.612,2.818,2.818,0,0,1,.066.612,2.854,2.854,0,0,1-5.01,1.872h0a2.843,2.843,0,0,1-.7-1.872m3.2,7.354h-2.85v-3.028h2.85Zm4.217.042h-2.85v-3.028h2.85Zm4.054,0h-2.85v-3.028h2.85Zm4.107.042H114.1V193.89h2.85Zm-2.379-4.628a2.856,2.856,0,1,1,2.856-2.856,2.855,2.855,0,0,1-2.856,2.856"
			transform="translate(-78.526 -146.048)"
			fill="#fff"
		/>
		<path
			id="Path_9"
			data-name="Path 9"
			d="M140.8,169.428H132.41a2.207,2.207,0,0,1,.485-.932,4.451,4.451,0,0,1,3.644-1.319,5.315,5.315,0,0,1,3.269.886v0a2.575,2.575,0,0,1,1,1.363"
			transform="translate(-106.098 -133.956)"
			fill="#fff"
		/>
		<path
			id="Path_10"
			data-name="Path 10"
			d="M84.139,211.157v8.394s-2-.348-2.228-3.531c-.014-.191-.022-.389-.022-.6,0-3.78,2.249-4.262,2.249-4.262"
			transform="translate(-65.617 -169.197)"
			fill="#fff"
		/>
		<path
			id="Path_11"
			data-name="Path 11"
			d="M219.779,215.191c0,3.742-2.249,4.129-2.249,4.129v-8.394s2.249.483,2.249,4.264"
			transform="translate(-174.303 -169.012)"
			fill="#fff"
		/>
	</g>
</svg>
